<svg aria-hidden="true" style="position: absolute; width: 0; height: 0; overflow: hidden;" version="1.1" xmlns="http://www.w3.org/2000/svg" xmlns:xlink="http://www.w3.org/1999/xlink">
<defs>
<symbol id="new-cross" viewBox="0 0 18 32">
<path stroke-linejoin="miter" stroke-linecap="butt" stroke-miterlimit="4" stroke-width="2.1333" d="M0.211 11.977l17.5 17.5"></path>
<path stroke-linejoin="miter" stroke-linecap="butt" stroke-miterlimit="4" stroke-width="2.1333" d="M17.711 11.977l-17.5 17.5"></path>
</symbol>
<symbol id="arrow-right" viewBox="0 0 32 32">
<path stroke-linejoin="round" stroke-linecap="round" stroke-miterlimit="4" stroke-width="2.6667" d="M25.333 16h-18.667"></path>
<path stroke-linejoin="round" stroke-linecap="round" stroke-miterlimit="4" stroke-width="2.6667" d="M16 25.333l-9.333-9.333 9.333-9.333"></path>
</symbol>
<symbol id="arrow-left" viewBox="0 0 32 32">
<path stroke-linejoin="round" stroke-linecap="round" stroke-miterlimit="4" stroke-width="2.6667" d="M6.667 16h18.667"></path>
<path stroke-linejoin="round" stroke-linecap="round" stroke-miterlimit="4" stroke-width="2.6667" d="M16 25.333l9.333-9.333-9.333-9.333"></path>
</symbol>
<symbol id="search" viewBox="0 0 32 32">
<path fill="none" stroke="#fff" style="stroke: var(--color1, #fff)" stroke-linejoin="round" stroke-linecap="round" stroke-miterlimit="4" stroke-width="2.6667" d="M14.667 25.333c5.891 0 10.667-4.776 10.667-10.667s-4.776-10.667-10.667-10.667c-5.891 0-10.667 4.776-10.667 10.667s4.776 10.667 10.667 10.667z"></path>
<path fill="none" stroke="#fff" style="stroke: var(--color1, #fff)" stroke-linejoin="round" stroke-linecap="round" stroke-miterlimit="4" stroke-width="2.6667" d="M28 28.001l-5.8-5.8"></path>
</symbol>
<symbol id="heart" viewBox="0 0 32 32">
<path fill="#ff6b08" style="fill: var(--color2, #ff6b08)" d="M16 30.583l-2.24-2.24c-8.32-7.36-13.76-12.32-13.76-18.4 0-4.96 3.84-8.8 8.8-8.8 2.72 0 5.44 1.28 7.2 3.36 1.76-2.080 4.48-3.36 7.2-3.36 4.96 0 8.8 3.84 8.8 8.8 0 6.080-5.44 11.040-13.76 18.4l-2.24 2.24z"></path>
</symbol>
<symbol id="logo" viewBox="0 0 32 32">
<path fill="none" stroke="#818181" style="stroke: var(--color3, #818181)" stroke-linejoin="round" stroke-linecap="round" stroke-miterlimit="4" stroke-width="2.6667" d="M26.427 2.667h-20.853c-1.605 0-2.907 1.301-2.907 2.907v20.853c0 1.605 1.301 2.907 2.907 2.907h20.853c1.605 0 2.907-1.301 2.907-2.907v-20.853c0-1.605-1.301-2.907-2.907-2.907z"></path>
<path fill="none" stroke="#818181" style="stroke: var(--color3, #818181)" stroke-linejoin="round" stroke-linecap="round" stroke-miterlimit="4" stroke-width="2.6667" d="M9.333 2.667v26.667"></path>
<path fill="none" stroke="#818181" style="stroke: var(--color3, #818181)" stroke-linejoin="round" stroke-linecap="round" stroke-miterlimit="4" stroke-width="2.6667" d="M22.667 2.667v26.667"></path>
<path fill="none" stroke="#818181" style="stroke: var(--color3, #818181)" stroke-linejoin="round" stroke-linecap="round" stroke-miterlimit="4" stroke-width="2.6667" d="M2.667 16h26.667"></path>
<path fill="none" stroke="#818181" style="stroke: var(--color3, #818181)" stroke-linejoin="round" stroke-linecap="round" stroke-miterlimit="4" stroke-width="2.6667" d="M2.667 9.333h6.667"></path>
<path fill="none" stroke="#818181" style="stroke: var(--color3, #818181)" stroke-linejoin="round" stroke-linecap="round" stroke-miterlimit="4" stroke-width="2.6667" d="M2.667 22.667h6.667"></path>
<path fill="none" stroke="#818181" style="stroke: var(--color3, #818181)" stroke-linejoin="round" stroke-linecap="round" stroke-miterlimit="4" stroke-width="2.6667" d="M22.667 22.667h6.667"></path>
<path fill="none" stroke="#818181" style="stroke: var(--color3, #818181)" stroke-linejoin="round" stroke-linecap="round" stroke-miterlimit="4" stroke-width="2.6667" d="M22.667 9.333h6.667"></path>
</symbol>
<symbol id="cross" viewBox="0 0 32 32">
<path d="M31.708 25.708c-0-0-0-0-0-0l-9.708-9.708 9.708-9.708c0-0 0-0 0-0 0.105-0.105 0.18-0.227 0.229-0.357 0.133-0.356 0.057-0.771-0.229-1.057l-4.586-4.586c-0.286-0.286-0.702-0.361-1.057-0.229-0.13 0.048-0.252 0.124-0.357 0.228 0 0-0 0-0 0l-9.708 9.708-9.708-9.708c-0-0-0-0-0-0-0.105-0.104-0.227-0.18-0.357-0.228-0.356-0.133-0.771-0.057-1.057 0.229l-4.586 4.586c-0.286 0.286-0.361 0.702-0.229 1.057 0.049 0.13 0.124 0.252 0.229 0.357 0 0 0 0 0 0l9.708 9.708-9.708 9.708c-0 0-0 0-0 0-0.104 0.105-0.18 0.227-0.229 0.357-0.133 0.355-0.057 0.771 0.229 1.057l4.586 4.586c0.286 0.286 0.702 0.361 1.057 0.229 0.13-0.049 0.252-0.124 0.357-0.229 0-0 0-0 0-0l9.708-9.708 9.708 9.708c0 0 0 0 0 0 0.105 0.105 0.227 0.18 0.357 0.229 0.356 0.133 0.771 0.057 1.057-0.229l4.586-4.586c0.286-0.286 0.362-0.702 0.229-1.057-0.049-0.13-0.124-0.252-0.229-0.357z"></path>
</symbol>
<symbol id="arrow-up" viewBox="0 0 32 32">
<path style="fill: var(--color1)" d="M31.479 16c0-8.549-6.93-15.479-15.479-15.479s-15.479 6.93-15.479 15.479 6.93 15.479 15.479 15.479 15.479-6.93 15.479-15.479z"></path>
<path fill="#fff" style="fill: var(--color2, #fff)" d="M10.124 24.226l5.63-2.921c0.154-0.080 0.338-0.080 0.493 0l5.63 2.921c0.439 0.228 0.925-0.211 0.744-0.671l-6.123-15.504c-0.178-0.451-0.817-0.451-0.995 0l-6.123 15.504c-0.182 0.46 0.305 0.899 0.744 0.671z"></path>
<path fill="#000" style="fill: var(--color3, #000)" opacity="0.1" d="M4.685 16c0-7.843 5.833-14.322 13.397-15.34-0.681-0.092-1.376-0.14-2.082-0.14-8.549 0-15.479 6.93-15.479 15.479s6.93 15.479 15.479 15.479c0.706 0 1.401-0.048 2.082-0.14-7.564-1.017-13.397-7.497-13.397-15.34z"></path>
<path fill="#000" style="fill: var(--color3, #000)" d="M23.976 2.722c0.14-0.251 0.050-0.568-0.201-0.708-2.365-1.317-5.053-2.014-7.774-2.014-4.274 0-8.292 1.664-11.314 4.686s-4.686 7.040-4.686 11.314c0 2.832 0.75 5.614 2.169 8.047 1.376 2.36 3.347 4.343 5.7 5.734 0.083 0.049 0.174 0.073 0.264 0.073 0.178 0 0.351-0.091 0.449-0.256 0.146-0.247 0.064-0.567-0.183-0.713-2.2-1.301-4.043-3.155-5.33-5.362-1.326-2.274-2.027-4.875-2.027-7.523 0-3.996 1.556-7.752 4.381-10.578s6.582-4.381 10.578-4.381c2.544 0 5.057 0.651 7.268 1.882 0.251 0.14 0.568 0.050 0.708-0.201z"></path>
<path fill="#000" style="fill: var(--color3, #000)" d="M25.618 3.214c-0.23-0.173-0.556-0.127-0.729 0.103s-0.127 0.556 0.102 0.729c1.813 1.366 3.314 3.153 4.343 5.169 1.078 2.113 1.624 4.396 1.624 6.786 0 3.996-1.556 7.752-4.381 10.577s-6.582 4.381-10.577 4.381c-1.977 0-3.899-0.38-5.713-1.131-0.266-0.11-0.57 0.016-0.68 0.282s0.016 0.57 0.282 0.68c1.941 0.803 3.997 1.21 6.111 1.21 4.274 0 8.292-1.664 11.314-4.686s4.686-7.040 4.686-11.314c0-2.555-0.585-4.998-1.738-7.259-1.099-2.156-2.705-4.068-4.644-5.528z"></path>
<path fill="#000" style="fill: var(--color3, #000)" d="M15.987 8.242c0.002-0.005 0.003-0.007 0.003-0.007 0.005-0.002 0.016-0.002 0.019-0.001 0 0 0.002 0.002 0.004 0.008l3.065 7.761c0.106 0.267 0.408 0.399 0.675 0.293s0.399-0.408 0.293-0.675l-3.065-7.761c-0.16-0.406-0.546-0.668-0.982-0.668s-0.821 0.262-0.982 0.668l-6.123 15.504c-0.163 0.414-0.056 0.873 0.274 1.171s0.798 0.358 1.193 0.153l5.63-2.921c0.004-0.002 0.009-0.002 0.013 0l5.63 2.921c0.156 0.081 0.323 0.12 0.488 0.12 0.254 0 0.505-0.093 0.705-0.274 0.33-0.298 0.438-0.758 0.274-1.171l-2.224-5.632c-0.106-0.267-0.408-0.399-0.675-0.293s-0.399 0.408-0.293 0.675l2.224 5.632c0.002 0.005 0.002 0.008 0.003 0.008-0.002 0.005-0.011 0.013-0.014 0.014 0 0-0.003-0-0.009-0.004l-5.63-2.921c-0.304-0.158-0.668-0.158-0.972 0l-5.63 2.921c-0.004 0.002-0.007 0.003-0.008 0.004-0.005-0.002-0.014-0.009-0.015-0.012 0 0 0-0.003 0.003-0.009l6.123-15.504z"></path>
</symbol>
</defs>
</svg>
